<svg width="1728" height="1117" viewBox="0 0 1728 1117" fill="none" xmlns="http://www.w3.org/2000/svg">
<g clip-path="url(#clip0_10_135)">
<rect width="1728" height="1117" fill="#FFE7C2"/>
<path d="M1040 -82C1075.58 -9.97347 1042.39 199.118 1123.14 308.144C1144.63 337.154 1163.18 347.158 1221 343.157" stroke="black" stroke-width="5" stroke-dasharray="10 10"/>
<path d="M1401.5 347C1508 342 1617 439.5 1669 519C1710.6 582.6 1790.17 763.833 1803.5 860" stroke="black" stroke-width="5" stroke-dasharray="10 10"/>
<path d="M1431.89 188.756C1436.39 193.247 1436.39 200.529 1431.89 205.02L1423.45 213.46C1473.89 272.203 1471.28 360.797 1415.63 416.444C1389.37 442.71 1355.76 457.159 1321.42 459.792V483.232H1348.25C1354.6 483.232 1359.75 488.381 1359.75 494.732C1359.75 501.083 1354.6 506.232 1348.25 506.232H1271.59C1265.23 506.232 1260.09 501.083 1260.09 494.732C1260.09 488.381 1265.23 483.232 1271.59 483.232H1298.42V459.791C1267.66 457.431 1237.48 445.59 1212.65 424.268L1204.21 432.708C1199.71 437.199 1192.43 437.199 1187.94 432.708C1183.45 428.217 1183.45 420.935 1187.94 416.444L1198.78 405.602C1206.38 398.006 1218.19 398.394 1225.58 405.021C1249.53 426.485 1279.7 437.222 1309.87 437.232L1309.92 437.232L1309.97 437.232C1342.33 437.219 1374.68 424.868 1399.37 400.181C1447.1 352.45 1448.71 276.056 1404.21 226.395C1397.58 219 1397.19 207.195 1404.79 199.598L1415.63 188.756C1420.12 184.265 1427.4 184.265 1431.89 188.756Z" fill="black"/>
<path fill-rule="evenodd" clip-rule="evenodd" d="M1206.42 310.732C1206.42 253.571 1252.76 207.232 1309.92 207.232C1367.08 207.232 1413.42 253.571 1413.42 310.732C1413.42 367.893 1367.08 414.232 1309.92 414.232C1252.76 414.232 1206.42 367.893 1206.42 310.732ZM1309.92 230.232C1265.46 230.232 1229.42 266.273 1229.42 310.732C1229.42 315.866 1229.9 320.888 1230.82 325.755C1237.12 318.877 1246.18 314.565 1256.25 314.565C1275.31 314.565 1290.75 330.012 1290.75 349.065C1290.75 363.208 1282.24 375.363 1270.06 380.69C1281.81 387.398 1295.42 391.232 1309.92 391.232C1348.92 391.232 1381.44 363.501 1388.84 326.682C1378.59 342.462 1360.8 352.899 1340.59 352.899C1308.83 352.899 1283.09 327.155 1283.09 295.399C1283.09 263.642 1308.83 237.899 1340.59 237.899C1341.91 237.899 1343.23 237.944 1344.53 238.032C1334.05 233.031 1322.31 230.232 1309.92 230.232ZM1306.09 295.399C1306.09 276.345 1321.53 260.899 1340.59 260.899C1359.64 260.899 1375.09 276.345 1375.09 295.399C1375.09 314.453 1359.64 329.899 1340.59 329.899C1321.53 329.899 1306.09 314.453 1306.09 295.399ZM1256.25 337.565C1249.9 337.565 1244.75 342.714 1244.75 349.065C1244.75 355.417 1249.9 360.565 1256.25 360.565C1262.6 360.565 1267.75 355.417 1267.75 349.065C1267.75 342.714 1262.6 337.565 1256.25 337.565Z" fill="black"/>
</g>
<defs>
<clipPath id="clip0_10_135">
<rect width="1728" height="1117" fill="white"/>
</clipPath>
</defs>
</svg>
