<svg width="276" height="322" viewBox="0 0 276 322" fill="none" xmlns="http://www.w3.org/2000/svg">
<path d="M247.894 3.75609C252.385 8.24712 252.385 15.5285 247.894 20.0195L239.454 28.4597C289.886 87.203 287.278 175.797 231.631 231.444C205.365 257.71 171.76 272.159 137.418 274.792V298.232H164.252C170.603 298.232 175.752 303.381 175.752 309.732C175.752 316.083 170.603 321.232 164.252 321.232H87.585C81.2337 321.232 76.085 316.083 76.085 309.732C76.085 303.381 81.2337 298.232 87.585 298.232H114.418V274.791C83.6556 272.431 53.4828 260.59 28.6461 239.268L20.2059 247.708C15.7149 252.199 8.43346 252.199 3.94243 247.708C-0.5486 243.217 -0.548599 235.935 3.94243 231.444L14.7847 220.602C22.3814 213.006 34.186 213.394 41.5816 220.021C65.5317 241.485 95.6997 252.222 125.872 252.232L125.918 252.232L125.968 252.232C158.326 252.219 190.68 239.868 215.367 215.181C263.099 167.45 264.713 91.0561 220.208 41.3952C213.58 33.9997 213.192 22.1951 220.789 14.5984L231.631 3.75609C236.122 -0.734939 243.403 -0.734941 247.894 3.75609Z" fill="black"/>
<path fill-rule="evenodd" clip-rule="evenodd" d="M22.4184 125.732C22.4184 68.5705 68.7569 22.232 125.918 22.232C183.08 22.232 229.418 68.5705 229.418 125.732C229.418 182.893 183.08 229.232 125.918 229.232C68.7569 229.232 22.4184 182.893 22.4184 125.732ZM125.918 45.232C81.4594 45.232 45.4184 81.2731 45.4184 125.732C45.4184 130.866 45.899 135.888 46.8177 140.755C53.1245 133.877 62.1846 129.565 72.2517 129.565C91.3055 129.565 106.752 145.012 106.752 164.065C106.752 178.208 98.2419 190.363 86.0633 195.69C97.8141 202.398 111.419 206.232 125.918 206.232C164.917 206.232 197.438 178.501 204.838 141.682C194.587 157.462 176.805 167.899 156.585 167.899C124.829 167.899 99.085 142.155 99.085 110.399C99.085 78.6423 124.829 52.8987 156.585 52.8987C157.911 52.8987 159.226 52.9436 160.53 53.0319C150.045 48.0313 138.309 45.232 125.918 45.232ZM122.085 110.399C122.085 91.3449 137.531 75.8987 156.585 75.8987C175.639 75.8987 191.085 91.3449 191.085 110.399C191.085 129.453 175.639 144.899 156.585 144.899C137.531 144.899 122.085 129.453 122.085 110.399ZM72.2517 152.565C65.9004 152.565 60.7517 157.714 60.7517 164.065C60.7517 170.417 65.9004 175.565 72.2517 175.565C78.603 175.565 83.7517 170.417 83.7517 164.065C83.7517 157.714 78.603 152.565 72.2517 152.565Z" fill="black"/>
</svg>
